<svg width="336" height="201" fill="none" xmlns="http://www.w3.org/2000/svg"><g clip-path="url(#a)"><rect y=".5" width="336" height="200" rx="10" fill="#F4D04E"/><rect x="87.996" y="77.729" width="139" height="95" rx="47.5" transform="rotate(-45 87.996 77.729)" fill="#fff"/><rect x="54.055" y="77.729" width="139" height="95" rx="47.5" transform="rotate(-45 54.055 77.729)" fill="#111"/><path fill="#111" d="M234.864 209.036 451.4-7.5l67.175 67.175-216.536 216.536z"/><rect x="20.114" y="77.729" width="139" height="95" rx="47.5" transform="rotate(-45 20.114 77.729)" fill="#fff"/><rect width="204.19" height="270.554" rx="102.095" transform="scale(-1 1) rotate(45 -103.887 14.564)" fill="#111"/><path d="m6.69-357.5 135.583 135.727c12.481 12.494 12.481 32.737 0 45.231L-45.544 11.475c-12.481 12.494-12.481 32.737 0 45.23L107.088 209.5" stroke="#fff" stroke-width="3"/><path d="M69.965 71.719v23.334h23.334M136.079 52.273V28.94h-23.334M102.845 38.838v46.67M210.364-37.5l60.873 60.873c12.497 12.496 12.497 32.758 0 45.254l-77.745 77.746c-12.497 12.496-12.497 32.758 0 45.254l69.872 69.873" stroke="#111" stroke-width="3"/><path d="m253.339 149.574-12.144 12.145 14.256 14.257v12.672h12.673l13.729 13.729 12.145-12.145M278.685 124.228l-12.145 12.145 14.257 14.257v12.673h12.673l13.729 13.729 12.145-12.145M304.031 98.883l-12.145 12.144 14.257 14.257v12.673h12.673l13.729 13.729 12.144-12.145M329.376 73.537l-12.145 12.145 14.257 14.257v12.672h12.673l13.729 13.729 12.145-12.144" stroke="#111" stroke-width="3"/><path d="m354.722 48.191-12.145 12.145 14.257 14.257v12.673h12.673l13.729 13.729 12.145-12.145" stroke="#fff" stroke-width="5"/><mask id="b" style="mask-type:alpha" maskUnits="userSpaceOnUse" x="234" y="-8" width="285" height="285"><path transform="rotate(-45 234.864 209.036)" fill="#111" d="M234.864 209.036h306.228v95H234.864z"/></mask><g mask="url(#b)" stroke="#fff"><path d="m253.339 149.574-12.144 12.145 14.256 14.257v12.672h12.673l13.729 13.729 12.145-12.145M278.685 124.228l-12.145 12.145 14.257 14.257v12.673h12.673l13.729 13.729 12.145-12.145M304.031 98.883l-12.145 12.144 14.257 14.257v12.673h12.673l13.729 13.729 12.144-12.145M329.376 73.537l-12.145 12.145 14.257 14.257v12.672h12.673l13.729 13.729 12.145-12.145" stroke-width="3"/><path d="m354.722 48.191-12.145 12.145 14.257 14.257v12.673h12.673l13.729 13.729 12.145-12.145" stroke-width="5"/></g></g><defs><clipPath id="a"><rect y=".5" width="336" height="200" rx="10" fill="#fff"/></clipPath></defs></svg>